<?xml version="1.0" encoding="UTF-8" standalone="no"?>
<!-- Created with Inkscape (http://www.inkscape.org/) -->

<svg
   version="1.1"
   id="svg1"
   width="918"
   height="887"
   viewBox="0 0 918 887"
   sodipodi:docname="WhatsApp Image 2024-03-09 at 5.28.44 PM.jpeg.2024_03_9_22_29_16.0.svg"
   inkscape:version="1.3.2 (091e20e, 2023-11-25)"
   xmlns:inkscape="http://www.inkscape.org/namespaces/inkscape"
   xmlns:sodipodi="http://sodipodi.sourceforge.net/DTD/sodipodi-0.dtd"
   xmlns="http://www.w3.org/2000/svg"
   xmlns:svg="http://www.w3.org/2000/svg">
  <defs
     id="defs1">
    <inkscape:path-effect
       effect="bspline"
       id="path-effect77"
       is_visible="true"
       lpeversion="1.3"
       weight="33.333333"
       steps="2"
       helper_size="0"
       apply_no_weight="true"
       apply_with_weight="true"
       only_selected="false"
       uniform="false" />
    <inkscape:path-effect
       effect="bspline"
       id="path-effect9"
       is_visible="true"
       lpeversion="1.3"
       weight="33.333333"
       steps="2"
       helper_size="0"
       apply_no_weight="true"
       apply_with_weight="true"
       only_selected="false"
       uniform="false" />
    <inkscape:path-effect
       effect="bspline"
       id="path-effect8"
       is_visible="true"
       lpeversion="1.3"
       weight="33.333333"
       steps="2"
       helper_size="0"
       apply_no_weight="true"
       apply_with_weight="true"
       only_selected="false"
       uniform="false" />
    <inkscape:path-effect
       effect="bspline"
       id="path-effect7"
       is_visible="true"
       lpeversion="1.3"
       weight="33.333333"
       steps="2"
       helper_size="0"
       apply_no_weight="true"
       apply_with_weight="true"
       only_selected="false"
       uniform="false" />
    <inkscape:path-effect
       effect="bspline"
       id="path-effect6"
       is_visible="true"
       lpeversion="1.3"
       weight="33.333333"
       steps="2"
       helper_size="0"
       apply_no_weight="true"
       apply_with_weight="true"
       only_selected="false"
       uniform="false" />
    <inkscape:path-effect
       effect="bspline"
       id="path-effect4"
       is_visible="true"
       lpeversion="1.3"
       weight="33.333333"
       steps="2"
       helper_size="0"
       apply_no_weight="true"
       apply_with_weight="true"
       only_selected="false"
       uniform="false" />
    <inkscape:path-effect
       effect="bspline"
       id="path-effect3"
       is_visible="true"
       lpeversion="1.3"
       weight="33.333333"
       steps="2"
       helper_size="0"
       apply_no_weight="true"
       apply_with_weight="true"
       only_selected="false"
       uniform="false" />
  </defs>
  <sodipodi:namedview
     id="namedview1"
     pagecolor="#ffffff"
     bordercolor="#000000"
     borderopacity="0.25"
     inkscape:showpageshadow="2"
     inkscape:pageopacity="0.0"
     inkscape:pagecheckerboard="0"
     inkscape:deskcolor="#d1d1d1"
     showgrid="false"
     showguides="true"
     inkscape:zoom="0.80283224"
     inkscape:cx="477.68385"
     inkscape:cy="488.27137"
     inkscape:window-width="1366"
     inkscape:window-height="704"
     inkscape:window-x="0"
     inkscape:window-y="27"
     inkscape:window-maximized="1"
     inkscape:current-layer="layer2" />
  <g
     inkscape:groupmode="layer"
     id="layer2"
     inkscape:label="logo"
     style="display:inline">
    <path
       style="opacity:0.28;fill:#000000"
       d="m 288.33122,559.02285 c -1.70892,-1.47913 -3.01771,7.37562 -2.24129,14.8189 0.77643,7.44328 3.95268,14.42179 5.08906,24.03365 1.13638,9.61186 0.56867,22.78262 4.61874,36.18967 4.05006,13.40706 13.83859,29.02182 18.35494,34.68272 4.51636,5.66091 4.8888,3.16791 4.68685,-1.04372 -0.20196,-4.21162 -0.97828,-10.14157 0.2505,-11.79904 1.22877,-1.65747 4.46253,0.95757 4.76941,9.96367 0.30687,9.0061 -2.36939,24.73335 -2.32472,35.27336 0.0447,10.54002 3.12428,16.9999 4.53794,16.5238 1.41365,-0.47611 1.53166,-7.11117 4.05653,-15.21521 2.52487,-8.10404 7.45639,-17.67655 11.65936,-25.36474 4.20296,-7.68818 7.67713,-13.49162 10.00794,-16.27692 2.33082,-2.78529 3.51818,-2.55233 5.85853,-3.72175 2.34035,-1.16943 5.83353,-3.74114 5.43251,1.556 -0.40101,5.29714 -4.69612,18.46266 -8.63328,29.25846 -3.93716,10.7958 -6.59899,17.06218 -8.64016,27.45609 -2.04116,10.39391 -2.54772,22.83689 0.77537,35.77468 3.32309,12.9378 11.34701,28.10435 13.0688,27.13952 1.7218,-0.96482 -2.09267,-16.86105 3.45182,-43.17944 5.54448,-26.31839 20.3385,-63.51096 24.06695,-90.80383 3.72846,-27.29287 -6.05963,-50.49436 -10.76554,-54.58977 -4.70592,-4.0954 -6.78041,5.10551 -7.20284,14.90504 -0.42243,9.79954 0.8072,20.1971 0.12378,26.50863 -0.68342,6.31153 0.17938,5.57207 -4.95976,8.68938 -5.13913,3.11731 -13.64104,7.55469 -20.23648,5.35658 -6.59543,-2.19812 -13.02137,-12.00229 -17.54695,-12.66446 -4.52559,-0.66217 -7.26695,4.81811 -10.07626,8.6591 -2.80932,3.841 -5.42005,4.59676 -8.0327,0.90531 -2.61265,-3.69145 -5.07867,-9.94435 -7.49686,-19.58008 -2.41819,-9.63573 -4.14956,-21.21537 -4.3118,-26.9749 -0.16223,-5.75953 5.08861,-6.65198 7.66502,-7.20129 2.57641,-0.54932 2.13004,-0.4472 8.11254,1.58623 5.9825,2.03342 14.15759,6.967 20.79244,10.4313 6.63485,3.4643 15.19726,6.81726 20.8086,4.88475 5.61134,-1.93251 11.73945,-7.79218 14.36221,-11.99213 2.62277,-4.19995 1.74011,-6.73996 -0.93354,-5.21021 -2.67364,1.52975 -9.08782,9.57453 -18.7308,7.83899 -9.64298,-1.73554 -25.59298,-11.49674 -34.54919,-14.30369 -8.95622,-2.80695 -12.04738,0.64936 -13.79758,2.30434 -1.75021,1.65498 -5.70538,0.23974 -6.97165,-5.69189 -1.26626,-5.93162 -3.38952,-17.64797 -5.09844,-19.1271 z"
       id="path6"
       inkscape:path-effect="#path-effect6"
       inkscape:original-d="m 287.91684,548.7854 c -1.29454,8.75832 -3.25575,17.51664 -3.88362,26.27496 2.28087,6.47604 6.56165,12.95182 8.84247,19.42772 0.77057,13.05655 -2.45889,26.11257 -1.68833,39.16885 7.70323,14.41525 19.40614,28.82992 27.10921,43.24488 0.37246,-2.49311 0.7449,-4.98611 1.11735,-7.47917 -0.77636,-5.93019 -1.55268,-11.86014 -2.32902,-17.79022 3.23389,2.61514 6.46765,5.23018 9.70148,7.84527 -1.97216,15.50736 -5.94424,31.01411 -7.91636,46.52116 2.16613,5.9422 6.33218,11.88415 8.49827,17.82622 0.11801,-6.63532 0.23602,-13.27038 0.35403,-19.90557 4.93173,-9.57289 9.86326,-19.1454 14.79488,-28.7181 3.47431,-5.80367 6.94847,-11.60711 10.4227,-17.41067 1.1874,0.23297 2.37476,0.46594 3.56214,0.6989 3.49332,-2.57182 6.9865,-5.14353 10.47975,-7.7153 -4.29528,13.16605 -8.59039,26.33157 -12.88559,39.49735 -5.27344,7.70611 -4.54667,15.4119 -9.82,23.11785 0.1623,12.38927 -1.67541,24.77805 -1.51311,37.16708 6.10768,14.06481 16.21512,28.12907 22.32268,42.19361 -3.07534,-15.59432 -8.15056,-31.18801 -11.22583,-46.78201 14.79461,-37.19405 29.58863,-74.38662 44.38294,-111.57992 -7.48773,-17.32902 -16.97516,-40.65735 -24.46274,-57.98602 -2.07457,9.20128 -4.14906,18.40219 -6.2236,27.60328 1.22968,10.39798 2.4593,20.79554 3.68895,31.19331 -3.44345,1.23705 -0.88675,2.47405 -4.33013,3.71108 -7.9553,3.48541 -15.91028,8.97069 -23.86541,12.45603 -5.81486,-8.20517 -11.62949,-18.41001 -17.44423,-26.61502 -4.60858,6.54751 -5.21697,13.09475 -9.82545,19.64213 -2.25469,-0.014 -4.50928,1.97202 -6.76392,1.95803 -2.9212,-8.07376 -5.84228,-14.1472 -8.76342,-22.22079 -1.0356,-11.3851 -4.07117,-22.76974 -5.10675,-34.15461 1.32576,-0.45196 6.65147,-0.90389 7.97721,-1.35583 3.71103,-1.21061 3.4219,-0.42116 7.13285,-1.63174 8.17543,4.93377 16.35052,9.86735 24.52578,14.80102 4.91716,2.44764 13.83412,4.89519 18.75117,7.34278 6.12836,-5.85991 12.25647,-11.71958 18.3847,-17.57937 -0.8827,-2.54011 -1.76537,-5.08012 -2.64805,-7.62019 -5.11454,5.08137 -10.22886,14.16254 -15.34329,19.24381 -13.86448,-10.63424 -31.7284,-17.26806 -45.59259,-27.90209 -3.09129,3.45645 -6.18245,6.91276 -9.27367,10.36914 -0.25785,-0.56937 -4.5157,-1.13872 -4.77355,-1.70808 -2.12334,-11.71683 -4.2466,-23.43318 -6.3699,-35.14976 z" />
    <path
       style="opacity:0.28;fill:#000000"
       d="m 261.83251,631.26431 c -4.57396,3.49011 -10.54693,15.67878 -16.54245,26.99188 -5.99551,11.3131 -12.01333,21.7502 -18.22426,32.6665 -6.21093,10.91629 -12.6146,22.31111 -19.347,34.09969 -6.7324,11.78857 -13.79312,23.97019 -24.71682,34.56428 -10.92369,10.5941 -25.70962,19.60007 -28.90095,23.69234 -3.19133,4.09228 5.2119,3.27072 14.98348,2.97625 9.77159,-0.29446 20.9109,-0.0618 37.09125,1.29211 16.18034,1.35393 37.40065,3.82903 47.85719,4.93389 10.45654,1.10485 10.1489,0.83941 8.57283,-1.55449 -1.57607,-2.39389 -4.42047,-6.91606 -5.06982,-12.48516 -0.64936,-5.56909 0.89633,-12.18475 3.4378,-20.21733 2.54147,-8.03258 6.07855,-17.48156 11.19158,-31.01522 5.11304,-13.53367 11.80169,-31.15111 14.76589,-40.51944 2.9642,-9.36833 2.20383,-10.48715 -0.77947,-17.19545 -2.9833,-6.7083 -8.18933,-19.00558 -12.37988,-27.75861 -4.19056,-8.75303 -7.36542,-13.96136 -11.93937,-10.47124 z"
       id="path3"
       inkscape:path-effect="#path-effect3"
       inkscape:original-d="m 263.23153,622.56575 c -5.97298,12.18867 -11.94596,24.37734 -17.91893,36.56602 -6.01805,10.43752 -12.03587,20.87462 -18.0538,31.31193 -6.40393,11.39528 -12.8076,22.7901 -19.2114,34.18515 -7.061,12.1821 -14.12172,24.36372 -21.18258,36.54558 -14.78653,9.00633 -29.57246,18.0123 -44.35869,27.01844 8.40357,-0.82159 16.8068,-1.64315 25.2102,-2.46473 11.13977,0.23265 22.27908,0.46529 33.41862,0.69794 21.22115,2.47521 42.44146,4.95031 63.66218,7.42547 -0.30764,-0.26545 -0.61528,-0.53089 -0.92292,-0.79634 -2.84451,-4.52234 -5.6889,-9.04451 -8.53335,-13.56677 1.54575,-6.61593 3.09143,-13.23159 4.63714,-19.84739 3.53723,-9.44936 7.07431,-18.89834 10.61146,-28.34751 6.68892,-17.61816 13.37758,-35.2356 20.06636,-52.8534 -0.76039,-1.11886 -1.52075,-2.23768 -2.28113,-3.35651 -5.20623,-12.29777 -10.41226,-24.59505 -15.61838,-36.89257 -3.17499,-5.20854 -6.34985,-10.41687 -9.52478,-15.62531 z" />
    <path
       style="opacity:0.28;fill:#000000"
       d="m 290.89283,528.39331 c -4.42282,0.12216 -2.54441,4.86195 1.57048,9.37713 4.1149,4.51518 10.46603,8.80557 13.20527,15.55765 2.73925,6.75207 1.86652,15.96536 1.72178,20.44113 -0.14474,4.47577 0.43849,4.21384 1.82759,0.30879 1.3891,-3.90505 3.58396,-11.45292 5.51766,-15.97876 1.9337,-4.52584 3.60612,-6.02945 7.75448,-7.23426 4.14836,-1.2048 10.77236,-2.11073 16.62294,-4.39951 5.85058,-2.28877 10.92741,-5.96023 13.26813,-8.08972 2.34073,-2.1295 1.94527,-2.71693 -0.42447,-2.4744 -2.36974,0.24254 -6.71357,1.31501 -12.14145,2.46869 -5.42789,1.15368 -11.93948,2.3885 -15.96207,2.21736 -4.02259,-0.17115 -5.55599,-1.74822 -11.68484,-4.78455 -6.12885,-3.03633 -16.85268,-7.53171 -21.2755,-7.40955 z"
       id="path4"
       inkscape:path-effect="#path-effect4"
       inkscape:original-d="m 284.59159,523.77567 c 1.87842,4.7398 3.75683,9.47959 5.63524,14.21939 6.35138,4.29056 12.70251,8.58095 19.05376,12.87143 -0.87276,9.21367 -1.74549,18.42696 -2.61823,27.64044 0.58326,-0.26194 1.16649,-0.52387 1.74974,-0.7858 2.19495,-7.54817 4.38981,-15.09604 6.58472,-22.64405 1.67249,-1.50367 3.34491,-3.00728 5.01737,-4.51093 6.62426,-0.90596 13.24826,-1.81189 19.87239,-2.71784 5.07703,-3.6716 10.15386,-7.34306 15.23079,-11.01459 -0.39548,-0.58746 -0.79094,-1.17489 -1.18642,-1.76234 -4.344,1.07252 -8.68783,2.14499 -13.03175,3.21749 -6.51185,1.23486 -13.02344,2.46968 -19.53516,3.70452 -1.53346,-1.57713 -3.06686,-3.1542 -4.60029,-4.73129 -10.72427,-4.49557 -21.4481,-8.99095 -32.17216,-13.48643 z" />
    <path
       style="opacity:0.28;fill:#000000"
       d="m 290.67609,534.50168 c -2.44331,-0.37032 -5.34676,-2.8429 -6.57498,-6.22921 -1.22822,-3.3863 -0.78123,-7.68617 4.7269,-17.47503 5.50814,-9.78886 15.42961,-24.13028 20.76274,-34.89141 5.33313,-10.76113 5.42984,-16.97455 9.81472,-25.37397 4.38489,-8.39942 13.05712,-18.95319 16.77333,-24.29799 3.71621,-5.34481 2.47627,-5.48043 0.67252,-6.92386 -1.80375,-1.44342 -5.16001,-5.3436 -3.47556,-6.19137 1.68446,-0.84777 7.42064,0.20781 10.4003,-0.79805 2.97965,-1.00586 3.0475,-1.93893 1.47366,-4.94439 -1.57384,-3.00547 -4.94441,-5.94902 -7.37521,-8.89822 -2.43081,-2.94919 -3.92171,-5.90384 -7.85121,-6.42725 -3.92949,-0.5234 -10.29729,1.38442 -15.81236,0.80315 -5.51507,-0.58127 -12.96704,-5.48893 -13.55295,-7.42084 -0.58591,-1.93191 2.47193,-2.62707 6.08862,-2.95808 3.61669,-0.33102 7.35969,-0.19959 12.28499,-1.73741 4.9253,-1.53781 12.67902,-5.60928 18.26935,-3.29166 5.59034,2.31762 10.66338,10.15955 13.12731,16.60572 2.46393,6.44617 2.31865,11.49623 2.26528,15.79198 -0.0534,4.29575 -0.0148,7.83694 -4.77962,15.10115 -4.7648,7.26421 -14.33255,18.25092 -19.58792,24.48608 -5.25536,6.23515 -6.77355,8.62386 -6.5693,10.99793 0.20425,2.37407 1.55545,5.63873 -0.60871,11.77613 -2.16417,6.1374 -7.84351,15.14711 -13.61732,23.53213 -5.77381,8.38502 -11.64173,16.14485 -14.57921,20.05392 -2.93748,3.90907 -3.41415,7.91124 -2.15835,9.21494 1.25579,1.3037 3.77421,3.85286 4.04183,5.99345 0.26761,2.14059 -1.71553,3.87249 -4.15885,3.50216 z"
       id="path7"
       inkscape:path-effect="#path-effect7"
       inkscape:original-d="m 291.13623,536.60394 c -2.90345,-2.47258 -5.8069,-4.94516 -8.71035,-7.41774 0.44701,-4.30003 0.894,-8.5999 1.341,-12.89984 11.02015,-14.96586 20.03986,-29.93112 31.0598,-44.89668 0.76371,-6.23441 -0.4726,-12.46857 0.2911,-18.70285 8.67258,-10.55419 17.34481,-21.10796 26.01722,-31.66194 -1.23999,-0.13563 -2.47993,-0.27125 -3.7199,-0.40688 -2.69714,-2.46758 -5.39418,-6.93505 -8.09128,-9.40257 5.7364,1.05563 11.47258,2.11122 17.20886,3.16682 0.83799,-3.02261 -0.32406,-4.04511 0.51391,-7.06766 -3.37071,-2.94367 -6.74128,-5.88722 -10.11192,-8.83083 -1.49097,-2.95478 -2.98187,-5.90943 -4.47281,-8.86415 -6.36805,1.90791 -12.73585,3.81574 -19.10377,5.7236 -4.25886,-3.68288 -12.51754,-7.36561 -16.77631,-11.04841 3.34619,-1.4274 6.69225,-0.85474 10.03838,-2.2821 3.74314,0.13143 7.48614,0.26286 11.2292,0.39429 6.65636,-2.16189 13.31245,-8.32369 19.96868,-10.48553 5.07324,7.84224 10.14629,15.68417 15.21944,23.52625 -0.14529,5.05026 -0.29057,10.10032 -0.43585,15.15049 0.0385,3.54133 0.0771,7.08252 0.11563,10.62378 -9.56814,10.98716 -19.1359,21.97387 -28.70384,32.96081 -0.46792,1.78518 -2.93582,3.57028 -3.40373,5.35542 1.35126,3.2648 2.70247,6.52946 4.0537,9.7942 -5.67957,9.01006 -11.35892,18.01977 -17.03837,27.02966 -5.86816,7.76015 -11.73608,15.51998 -17.60411,23.27997 -0.16351,0.0395 -0.32701,4.07897 -0.49052,4.11845 2.51852,2.54926 5.03693,5.09843 7.55539,7.64764 -1.98323,1.73197 -3.96637,3.46387 -5.94955,5.1958 z" />
    <path
       style="opacity:0.28;fill:#000000"
       d="m 361.08159,487.66317 c 4.53266,0.0574 14.9599,-2.64287 16.56535,-3.64857 1.60546,-1.00571 -0.85196,-4.86429 2.2245,-5.56268 3.07647,-0.69839 11.86783,-1.19491 13.32635,-2.9204 1.45852,-1.7255 -2.42213,-4.79244 -7.42984,-6.35862 -5.00771,-1.56618 -15.12041,-1.67391 -18.23487,-4.48814 -3.11446,-2.81424 -3.27721,-12.4099 -4.07047,-14.10861 -0.79325,-1.6987 -2.28536,0.46681 -2.74165,4.60379 -0.45629,4.13698 0.14108,10.43322 -0.2015,14.43984 -0.34257,4.00662 -1.60721,5.91148 -3.06391,7.90417 -1.4567,1.99269 -3.10536,4.07308 -2.96784,6.09539 0.13753,2.02232 2.06121,3.98645 6.59388,4.04383 z"
       id="path8"
       inkscape:path-effect="#path-effect8"
       inkscape:original-d="m 358.47264,489.56995 c 7.14161,-1.8494 17.61655,-4.36546 21.42482,-5.54819 -1.2492,-0.62811 -2.49836,-5.2562 -3.74753,-5.8843 6.79586,-0.42146 15.59146,-0.84291 22.38719,-1.26437 -3.88081,-3.06707 -7.76146,-6.13401 -11.64219,-9.20102 -6.12744,-0.74616 -16.25464,0.50771 -22.38196,-0.23843 0.54953,-5.57404 -0.90096,-15.14786 -0.35145,-20.72179 -1.49216,2.1656 -2.98426,4.33111 -4.4764,6.49666 -0.0812,6.1711 1.83764,12.34196 1.75646,18.51295 -1.26469,1.90494 -2.52933,3.8098 -3.794,5.7147 -1.64873,2.08048 -3.29739,4.16087 -4.94609,6.2413 1.92375,1.9642 3.84743,3.92833 5.77115,5.89249 z" />
    <path
       style="opacity:0.28;fill:#000000"
       d="m 352.01866,369.62686 c -2.93856,0.62472 -9.01468,-2.33535 -13.2067,-3.982 -4.19202,-1.64665 -6.49984,-1.97987 -9.66442,-0.77903 -3.16458,1.20083 -7.1857,3.93562 -8.2144,2.36399 -1.0287,-1.57163 0.93503,-7.44949 0.99719,-13.17925 0.0621,-5.72976 -2.96633,-14.9192 -0.0748,-14.31565 2.89157,0.60356 12.62251,9.2698 16.12858,10.45937 3.50607,1.18958 2.89583,-3.21949 3.05335,-7.53436 0.15752,-4.31487 1.9195,-12.35182 3.38751,-10.07887 1.46802,2.27295 3.47869,11.03898 5.2582,16.78825 1.77951,5.74928 3.32775,8.48151 4.20138,11.95246 0.87364,3.47094 1.07263,7.68036 -1.86593,8.30509 z"
       id="path9"
       inkscape:path-effect="#path-effect9"
       inkscape:original-d="m 355.15621,373.21165 c -6.07611,-2.96007 -12.15223,-5.92014 -18.22835,-8.88021 -2.30792,-0.33323 -4.61574,-0.66645 -6.92361,-0.99967 -4.02129,2.73489 -8.04241,5.46968 -12.06362,8.20452 1.96381,-5.8781 3.92754,-11.75596 5.89131,-17.63394 -2.23583,-5.45091 -4.47157,-14.90161 -6.70736,-20.35242 7.65879,6.74787 17.31727,15.49547 24.97591,22.2432 -0.61027,-4.40926 -1.22051,-8.81833 -1.83077,-13.2275 1.20421,-4.15942 2.40837,-12.31867 3.61255,-16.478 2.01075,8.76638 4.02143,17.53241 6.03215,26.29862 1.5483,2.73234 3.09654,5.46457 4.64481,8.19686 0.199,4.2096 0.39799,8.41902 0.59698,12.62854 z" />
    <path
       style="color:#000000;fill:#000000;-inkscape-stroke:none"
       d="m 499.04883,90.595703 c -0.68701,0.05552 -1.35277,0.445074 -2.10742,1.058594 -1.50931,1.22704 -3.39646,3.44678 -5.89063,6.535156 -9.97665,12.353507 -29.52085,38.640257 -39.17773,51.666017 -2.41422,3.25644 -4.20791,5.67908 -5.66993,7.28515 -1.46201,1.60608 -2.56385,2.34952 -3.5625,2.43946 -0.99864,0.0899 -2.08495,-0.44089 -3.58984,-1.7461 -1.50489,-1.30521 -3.37553,-3.3437 -5.89258,-6.04687 -10.06817,-10.81269 -30.43012,-32.18438 -40.40625,-43.08398 -2.49403,-2.72491 -7.45664,-11.323602 -5.82031,-6.125 0.29819,0.94734 0.54453,-12.431275 -0.0872,-12.704075 -0.63174,-0.27279 -3.22398,10.970425 -3.79756,11.243105 -1.14714,0.54542 -1.81249,2.00347 -2.59375,4.4082 -0.78125,2.40474 -1.62326,5.82369 -2.78125,10.41797 -4.63194,18.37711 -14.28946,55.58369 -18.61523,74.625 -1.08144,4.76033 -1.82999,8.38158 -2.5,11.01562 -0.67,2.63405 -1.29076,4.27411 -1.96094,5.03125 -0.33508,0.37858 -0.65207,0.55033 -1.06054,0.60743 -0.40848,0.0571 -0.934,-0.0211 -1.60743,-0.26368 -1.34685,-0.48521 -3.23401,-1.61132 -5.83398,-3.19726 -10.39987,-6.34376 -32.22727,-19.87519 -42.64844,-26.8086 -2.60529,-1.73335 -4.49474,-3.05407 -5.80078,-3.77734 -0.65302,-0.36163 -1.13901,-0.59881 -1.64648,-0.60937 -0.25374,-0.005 -0.55147,0.083 -0.74414,0.29492 -0.19267,0.21188 -0.25606,0.4756 -0.27149,0.73633 -0.0308,0.52146 0.11125,1.14271 0.3711,2.0039 0.25984,0.8612 0.65013,1.94769 1.16406,3.29688 1.02786,2.69837 2.54992,6.4463 4.50195,11.47656 7.80811,20.12103 22.49251,60.76025 29.83399,81.07812 3.67073,10.15894 5.50583,15.23581 6.39453,17.57618 0.22217,0.58509 0.38316,0.99916 0.5039,1.28515 0.0604,0.143 0.1114,0.25362 0.15625,0.34375 0.0449,0.0901 0.0568,0.14354 0.16992,0.26172 0.0283,0.0296 0.0651,0.0668 0.14258,0.10742 0.0387,0.0203 0.0886,0.0417 0.1543,0.0527 0.0328,0.005 0.0689,0.008 0.10742,0.006 0.0385,-0.002 0.11645,-0.0193 0.11719,-0.0195 7.4e-4,-2.2e-4 0.0779,-0.026 0.11133,-0.0449 0.0334,-0.0189 0.0631,-0.0405 0.0879,-0.0625 0.0496,-0.044 0.0796,-0.0895 0.10156,-0.12695 0.0439,-0.075 0.0562,-0.12488 0.0644,-0.16406 0.0329,-0.15672 0.0129,-0.20199 0.006,-0.2793 -0.014,-0.1546 -0.043,-0.33658 -0.0762,-0.54687 -0.26506,-1.68237 -0.77625,-4.92119 0.625,-8.91016 1.40126,-3.98897 4.78388,-8.81684 9.875,-15.20312 5.09112,-6.38629 11.86687,-14.3184 18.42969,-19.87696 6.56282,-5.55856 12.92065,-8.77068 22.12695,-11.86914 9.2063,-3.09845 21.22417,-6.05976 32.625,-7.52148 11.40083,-1.46173 22.21271,-1.42851 30.52344,-0.6836 8.31073,0.74492 14.10128,2.19375 20.85547,4.64453 6.75419,2.45079 14.45813,5.90579 19.14648,8.31055 1.17209,0.60119 2.1755,1.18028 3.18946,1.27539 0.50697,0.0476 1.03052,-0.0536 1.47851,-0.36328 0.448,-0.30972 0.80858,-0.79611 1.11719,-1.4668 1.23443,-2.68274 1.857,-8.55703 2.3418,-21.06054 0.96958,-25.00702 1.18768,-76.34159 1.11328,-102.83203 -0.0186,-6.62261 -0.054,-11.6943 -0.25586,-15.400394 -0.20183,-3.706097 -0.51582,-6.020822 -1.3125,-7.308594 -0.39835,-0.643886 -1.0376,-1.035988 -1.72461,-0.980469 z m 0.0801,0.998047 c 0.33142,-0.02678 0.51809,0.0635 0.79296,0.507812 0.54975,0.888617 0.96458,3.174844 1.16407,6.837891 0.19948,3.663047 0.23726,8.729287 0.25586,15.349607 0.0744,26.48127 -0.14553,77.82919 -1.11328,102.78906 -0.48388,12.47994 -1.2054,18.41144 -2.25,20.68165 -0.26116,0.56755 -0.52979,0.8894 -0.77735,1.06054 -0.24755,0.17115 -0.48448,0.22254 -0.8164,0.19141 -0.66385,-0.0623 -1.64368,-0.56239 -2.82813,-1.16992 -4.73781,-2.43013 -12.45163,-5.89097 -19.25977,-8.36133 -6.80813,-2.47036 -12.72262,-3.94767 -21.10742,-4.69922 -8.38479,-0.75155 -19.25848,-0.7846 -30.74023,0.6875 -11.48176,1.4721 -23.54344,4.44551 -32.81641,7.56641 -9.27296,3.12089 -15.79365,6.41261 -22.45508,12.05468 -6.66142,5.64208 -13.4555,13.60697 -18.56445,20.01563 -5.10895,6.40866 -8.55384,11.2717 -10.03711,15.49414 -0.94474,2.68942 -1.00802,4.85997 -0.90234,6.67773 -0.9555,-2.55229 -2.50008,-6.81298 -5.87891,-16.16406 -7.34147,-20.31787 -22.02434,-60.94945 -29.84375,-81.09961 -1.95485,-5.03754 -3.47943,-8.79344 -4.5,-11.47265 -0.51028,-1.33961 -0.89376,-2.41034 -1.14062,-3.22852 -0.24687,-0.81818 -0.3453,-1.39901 -0.33008,-1.65625 0.005,-0.0892 0.009,-0.0787 0.01,-0.084 0.13263,0.006 0.57254,0.14573 1.16993,0.47656 118.89048,65.84001 33.11928,21.23682 48.41406,30.5664 2.6021,1.58724 4.48971,2.73614 6.01367,3.28516 0.76198,0.27451 1.44545,0.40203 2.08594,0.3125 0.64048,-0.0895 1.21159,-0.41774 1.66992,-0.93555 0.91666,-1.03561 1.50153,-2.77351 2.18164,-5.44726 0.68011,-2.67375 1.42664,-6.29048 2.50586,-11.04102 4.31687,-19.00216 17.51368,-75.24952 22.14794,-93.635869 1.15857,-4.59659 -1.53522,11.021119 -0.77489,8.680789 0.76033,-2.34032 1.49015,-3.53572 2.07226,-3.8125 0.29106,-0.13838 -2.49242,-4.457835 -2.03211,-4.259015 -4.4999,7.148905 -1.29894,-2.840677 3.38568,1.254563 9.99412,10.919262 37.53789,42.650262 47.59565,53.451772 2.51444,2.70038 4.38802,4.74646 5.9707,6.11914 1.58269,1.37269 2.92692,2.11501 4.33399,1.98828 1.40707,-0.12672 2.86488,-0.94354 4.21094,-2.76367 10.15154,-13.72688 23.47145,-25.51146 25.88539,-28.76752 9.65576,-13.02424 9.05929,-17.91599 19.00132,-30.226621 2.48551,-3.077658 4.3809,-5.278422 5.74415,-6.386718 0.68162,-0.554149 -2.45637,3.949489 -2.12494,3.922706 z"
       id="path77"
       sodipodi:nodetypes="cssssssssssssssssssssscssssssssssscssssscccssssssssssssssscccssssssssssssssscssssccssssssssssssssssssscc" />
  </g>
</svg>
